<svg xmlns="http://www.w3.org/2000/svg" fill="currentColor" viewBox="0 0 512 512"><path d="M255.873 0c53.915 0 95.565 39.443 100.42 90.847h46.249c53.149 0 80.235 26.465 80.235 78.886v263.38c0 52.422-26.83 78.887-72.569 78.887h-300.75c-53.404 0-80.234-26.211-80.234-78.887v-263.38c0-52.675 26.83-78.886 80.234-78.886h46.25C160.563 39.189 202.213 0 255.873 0Zm67.78 222.166c-16.366 0-30.285 10.47-35.429 25.076-1.078 2.539-3.164 2.542-4.245.011-5.141-14.612-19.063-25.087-35.433-25.087-16.706 0-30.862 10.909-35.738 25.992-1.409 1.722-3.653 1.2-3.653-1.568h-.04c-.125-7.494-.656-11.924-2.93-15.223a16.826 16.826 0 0 0-5.855-5.252c-4.604-2.485-10.802-1.808-23.196-.456-10.175 1.11-15.264 1.665-18.905 4.343a16.807 16.807 0 0 0-4.582 5.109c-2.267 3.911-2.268 9.029-2.268 19.265v111.491c0 7.076.001 10.615 1.636 13.192a10.522 10.522 0 0 0 3.24 3.24c2.577 1.635 6.116 1.636 13.192 1.636h23.477c7.077 0 10.616-.001 13.193-1.636a10.512 10.512 0 0 0 3.24-3.24c1.387-2.187 1.596-5.066 1.628-10.211-.015-1.565-.068-2.55-.267-3.405a10.504 10.504 0 0 0-7.844-7.844c-1.177-.275-2.602-.275-5.45-.275h-8.491c-11.603 0-21.009-9.406-21.009-21.009 0-11.602 9.406-21.008 21.009-21.008h8.229c3.092 0 4.639 0 5.912-.324a10.506 10.506 0 0 0 7.595-7.595c.324-1.273.324-2.82.324-5.912V289.94c0-11.322 0-16.983 2.616-21.106a16.823 16.823 0 0 1 5.185-5.185c4.123-2.616 9.784-2.617 21.107-2.617h24.273c1.081 0 1.952.887 1.933 1.967-.273 15.817-13.173 28.496-28.992 28.496h-8.035c-.701 0-1.051 0-1.345.042a4.201 4.201 0 0 0-3.57 3.569c-.042.294-.041.645-.041 1.346v69.415c0 7.076 0 10.615 1.635 13.192a10.515 10.515 0 0 0 3.241 3.24c2.576 1.635 6.116 1.636 13.192 1.636h25.841c7.076 0 10.614-.001 13.191-1.636a10.504 10.504 0 0 0 3.241-3.24c1.201-1.892 1.518-4.302 1.603-8.249-.033-.918-.1-1.601-.243-2.216a10.506 10.506 0 0 0-7.845-7.845c-1.177-.274-2.601-.274-5.449-.274h-8.491c-11.603-.001-21.009-9.406-21.009-21.009s9.406-21.009 21.009-21.009h8.228c3.093 0 4.64 0 5.912-.323a10.505 10.505 0 0 0 7.596-7.596c.323-1.273.323-2.819.323-5.912l.001.009v-6.29c0-11.323 0-16.984 2.616-21.107a16.801 16.801 0 0 1 5.185-5.185c4.123-2.617 9.785-2.616 21.107-2.616h24.274c1.08 0 1.951.886 1.932 1.966-.273 15.817-13.173 28.496-28.992 28.496h-8.036c-.7 0-1.051.001-1.345.042a4.202 4.202 0 0 0-3.569 3.57c-.042.293-.042.644-.042 1.344v61.012c0 7.076.001 10.615 1.636 13.192a10.512 10.512 0 0 0 3.24 3.24c2.577 1.635 6.116 1.636 13.192 1.636h25.841c7.076 0 10.615-.001 13.192-1.636a10.522 10.522 0 0 0 3.24-3.24c1.635-2.577 1.636-6.116 1.636-13.192V259.72c0-20.74-16.814-37.554-37.554-37.554ZM255.873 38.68c-31.941 0-54.683 21.121-58.771 52.167h117.796c-4.089-31.046-26.83-52.167-59.025-52.167Z"/></svg>