<svg xmlns="http://www.w3.org/2000/svg" width="512" height="512" fill="currentColor" viewBox="0 0 512 512">
  <path d="M54.635 223.689v-50.664c0-22.309 13.553-31.066 35.028-31.066h48.371c-12.302-11.467-19.599-27.105-19.599-45.452 0-40.448 32.108-69.22 72.348-69.22 29.398 0 53.375 16.053 64.009 43.992C265.425 43.34 289.61 27.286 318.8 27.286c40.448 0 72.348 28.773 72.348 69.22 0 18.348-7.297 33.986-19.39 45.453h48.371c22.517 0 35.027 8.757 35.027 31.066v50.664c0 22.31-12.51 31.066-35.027 31.066H271.888V141.959h-34.193v-30.232c0-30.857-20.016-49.622-44.827-49.622-22.934 0-39.614 13.344-39.614 36.278 0 22.935 19.182 43.576 51.915 43.576h32.526v112.796H89.663c-22.518 0-35.028-8.756-35.028-31.066Zm262.08-161.584c-24.811 0-44.827 18.765-44.827 49.622v30.232h32.526c32.942 0 51.915-20.641 51.915-43.576 0-22.934-16.68-36.278-39.614-36.278ZM84.45 411.336V277.064h153.245v187.23h-97.993c-34.819 0-55.252-18.139-55.252-52.958Zm187.438 52.958v-187.23h153.453v134.272c0 34.819-20.641 52.958-55.251 52.958h-98.202Z"/>
</svg>
