<svg xmlns="http://www.w3.org/2000/svg" fill="currentColor" viewBox="0 0 512 512"><path d="M68.366 419.155c-40.422 0-67.252-26.83-67.252-68.134 0-17.651 4.06-37.95 10.944-60.721 10.767-36.185 29.654-85.432 47.659-123.559 15.18-31.773 22.947-46.247 60.367-54.72 33.185-7.59 79.432-12.709 135.916-12.709 56.484 0 102.554 5.119 135.739 12.709 37.421 8.473 45.188 22.947 60.368 54.72 18.004 38.127 36.891 87.374 47.658 123.559 6.884 22.771 10.944 43.07 10.944 60.721 0 41.304-26.83 68.134-67.251 68.134-24.183 0-40.775-8.825-55.602-27.183l-31.949-38.656c-4.59-5.472-9.885-8.12-15.18-8.12h-169.63c-5.295 0-10.591 2.648-15.18 8.12l-31.949 38.656c-14.827 18.358-31.42 27.183-55.602 27.183Zm40.245-195.4c0 9.531 5.649 15.356 15.18 15.356h32.655v31.773c0 9.355 5.296 15.18 14.474 15.18 9.003 0 14.475-5.825 14.475-15.18v-31.773h30.536c10.238 0 16.416-5.825 16.416-15.356 0-9.179-6.178-14.828-16.416-14.828h-30.536v-31.772c0-9.355-5.472-15.004-14.475-15.004-9.178 0-14.474 5.649-14.474 15.004v31.772h-32.655c-9.531 0-15.18 5.649-15.18 14.828Zm260.534-1.765c14.827 0 26.654-11.827 26.654-26.478 0-14.827-11.827-26.653-26.654-26.653-14.474 0-26.653 11.826-26.653 26.653 0 14.651 12.179 26.478 26.653 26.478Zm-53.483 53.836c14.65 0 26.653-11.826 26.653-26.477s-12.003-26.653-26.653-26.653c-14.474 0-26.654 12.002-26.654 26.653 0 14.651 12.18 26.477 26.654 26.477Z"/></svg>