<svg xmlns="http://www.w3.org/2000/svg" width="512" height="512" fill="currentColor" viewBox="0 0 512 512">
  <path d="M269.28 181.079V37.372h134.159c43.847 0 65.561 21.714 65.561 64.725v153.312H345.072c28.187-12.528 47.396-35.704 47.396-63.682 0-32.363-23.802-56.374-55.956-56.374-27.77 0-52.616 17.33-67.232 45.726Zm-38 70.989c-43.638 0-81.012-29.857-81.012-57.835 0-16.704 10.231-26.935 26.099-26.935 32.99 0 61.594 36.539 61.594 78.507v6.263h-6.681Zm48.649 0h-6.682v-6.263c0-41.968 28.605-78.507 61.594-78.507 16.077 0 26.1 10.231 26.1 26.935 0 27.978-37.166 57.835-81.012 57.835ZM42 255.409V102.097c0-43.01 21.923-64.725 65.561-64.725h134.367v143.707c-14.406-28.396-39.253-45.726-67.231-45.726-31.945 0-55.956 24.011-55.956 56.374 0 27.978 19.417 51.154 47.396 63.682H42Zm335.018 94.583c-30.693-3.132-73.287-43.22-86.023-69.737H469v134.103c0 43.011-21.714 64.517-65.561 64.517H269.28V295.706h1.671c14.406 45.517 69.319 85.814 103.561 90.825 12.736 1.67 20.671-7.516 20.671-17.33 0-11.066-6.473-18.165-18.165-19.209ZM107.561 478.875C63.923 478.875 42 457.369 42 414.358V280.255h178.423c-12.945 26.517-55.33 66.188-86.232 69.737-11.483 1.253-17.956 8.143-17.956 19.209 0 9.814 7.934 19 20.671 17.33 34.242-5.011 89.154-45.308 103.561-90.825h1.461v183.169H107.561Z"/>
</svg>
