<svg xmlns="http://www.w3.org/2000/svg" fill="currentColor" viewBox="0 0 512 512"><path d="M256.005 29c58.001 0 110.908 21.757 151.031 57.567l-88.015 98.75a113.63 113.63 0 0 1 3.298 3.092l.051.041.075.075.051.04.192.198.045.045.071.071.045.04.076.081.04.04.07.075.056.041.111.091.04.045.076.076.045.04.072.076.044.04.071.086.046.04.07.077.041.044.075.071.045.041.067.08.054.041.067.07.049.056.077.07.04.056.076.07.04.041.07.085.046.041.07.075.04.046.077.071.04.055.116.116.07.076.041.05.071.071.05.055.071.071.04.055.071.071.045.05.07.076.046.05.075.071.041.055.066.077.049.055.072.075.04.046.076.076.05.055.071.075.04.046.07.071.051.055.066.075.04.046.076.076.04.045.065.076.046.055.066.072.04.054.076.072.04.045.065.085.051.045a90.006 90.006 0 0 1 2.926 3.446l102.841-83.202a230.029 230.029 0 0 1 13.292 18.179l-110.584 72.61a83.13 83.13 0 0 1 3.152 5.135l114.988-65.436C472.205 176.828 483 215.15 483 256.005 483 381.38 381.374 483 256.005 483c-58.001 0-110.902-21.752-151.03-57.542l87.969-98.74a169.401 169.401 0 0 1-3.298-3.087l-.051-.051-.075-.07-.046-.051-.066-.075-.055-.051-.071-.065-.046-.056-.07-.066-.045-.055-.076-.07-.045-.051-.065-.071-.056-.045-.071-.071-.04-.055-.076-.066-.046-.056-.065-.07-.056-.045-.191-.192-.04-.056-.076-.07-.051-.045-.065-.071-.056-.055-.066-.066-.044-.055-.077-.071-.04-.056-.076-.07-.04-.045-.07-.077-.046-.044-.464-.496-.07-.065-.046-.061-.07-.065-.273-.303-.075-.075-.041-.051-.066-.07-.044-.056-.072-.07-.161-.177-.065-.07-.046-.056-.071-.071-.04-.055-.071-.071-.161-.177-.065-.075-.051-.056-.066-.065-.04-.061-.076-.07-.04-.056-.065-.07-.046-.055a98.334 98.334 0 0 1-2.92-3.446L79.535 398.788a230.498 230.498 0 0 1-13.292-18.181l110.589-72.614a101.3 101.3 0 0 1-3.152-5.136L58.682 368.305C39.79 335.188 29 296.86 29 256.005 29 130.63 130.63 29 256.005 29Zm0 157.16c-38.58 0-69.845 31.265-69.845 69.845s31.265 69.845 69.845 69.846c38.565 0 69.846-31.266 69.846-69.846-.001-38.58-31.281-69.845-69.846-69.845Zm0 59.12c5.922 0 10.724 4.803 10.724 10.725s-4.802 10.724-10.724 10.724c-5.922 0-10.724-4.802-10.724-10.724 0-5.922 4.802-10.725 10.724-10.725Z"/></svg>