<svg xmlns="http://www.w3.org/2000/svg" fill="currentColor" viewBox="0 0 512 512"><g clip-path="url(#a)"><path d="M331.506 49.37c7.194-3.5 14.389-3.694 22.167-.194l136.891 58.334c17.695 7.389 24.694 20.223 20.028 38.696l-17.306 69.029c-4.472 18.667-16.139 26.056-34.223 21.973l-47.639-10.89-2.528 190.948c-.583 35.778-18.084 53.084-54.056 53.084H157.086c-35.973 0-53.473-17.306-54.057-53.084l-2.333-190.948-47.834 10.89c-18.083 4.083-29.75-3.306-34.223-21.973L1.333 146.206c-4.472-18.473 2.333-31.307 20.028-38.696l136.892-58.334c7.778-3.5 14.972-3.305 22.167.195 25.667 12.25 46.473 18.472 75.639 18.472 28.973 0 49.78-6.222 75.447-18.472ZM305.55 174.139c-11.833 0-21.897 7.57-25.617 18.131-.781 1.839-2.293 1.839-3.074-.002-3.72-10.559-13.782-18.129-25.614-18.129-12.078 0-22.313 7.888-25.839 18.792-1.019 1.247-2.642.87-2.642-1.133h-.044c-.07-2.508-.254-4.209-.742-5.659a15.07 15.07 0 0 0-11.058-9.918c-2.408-.527-5.376-.204-11.309.444-4.877.532-7.316.798-9.296 1.614a15.068 15.068 0 0 0-8.728 9.733c-.597 2.057-.597 4.51-.597 9.416v77.479c0 6.344 0 9.516 1.466 11.826a9.43 9.43 0 0 0 2.905 2.905c2.31 1.466 5.483 1.466 11.827 1.466h10.706c6.344 0 9.518 0 11.828-1.466a9.43 9.43 0 0 0 2.905-2.905c.976-1.539 1.3-3.462 1.409-6.45a9.415 9.415 0 0 0-9.053-8.414c-.154-.005-.337-.005-.701-.005h-6.14c-8.389 0-15.19-6.801-15.19-15.191 0-8.389 6.801-15.19 15.19-15.19h5.95c.541 0 .812 0 1.041-.011a9.417 9.417 0 0 0 8.948-8.948c.011-.229.012-.5.012-1.041v-3.325c0-10.151 0-15.227 2.345-18.923a15.077 15.077 0 0 1 4.649-4.649c3.696-2.345 8.772-2.345 18.922-2.345h12.536c.781 0 1.41.641 1.397 1.422-.197 11.436-9.524 20.604-20.962 20.604h-5.81a3.583 3.583 0 0 0-3.583 3.583v47.057c0 6.344 0 9.516 1.466 11.826a9.408 9.408 0 0 0 2.905 2.905c2.31 1.466 5.482 1.466 11.826 1.466h12.85c5.931 0 8.898 0 11.101-1.288a9.414 9.414 0 0 0 3.374-3.374c.683-1.167 1.001-2.549 1.152-4.472a9.418 9.418 0 0 0-8.972-7.823c-.154-.005-.337-.005-.702-.005h-6.14c-8.389 0-15.189-6.801-15.189-15.19s6.8-15.191 15.189-15.191h5.95c.541 0 .812.001 1.04-.01a9.42 9.42 0 0 0 8.959-9.352l.001-.633c.001-9.839.037-14.815 2.346-18.454a15.07 15.07 0 0 1 4.648-4.648c3.697-2.346 8.773-2.346 18.923-2.346h12.535c.782 0 1.411.641 1.398 1.422-.197 11.436-9.524 20.603-20.962 20.603h-5.811a3.586 3.586 0 0 0-3.583 3.584v40.98c0 6.344 0 9.516 1.466 11.826a9.422 9.422 0 0 0 2.906 2.905c2.31 1.466 5.482 1.466 11.826 1.466h12.85c5.932 0 8.898 0 11.101-1.288a9.422 9.422 0 0 0 3.374-3.374c1.288-2.203 1.289-5.17 1.289-11.102v-74.048c0-14.996-12.158-27.153-27.153-27.153Zm16.817-90.933c-20.223 7.778-43.363 12.055-66.308 12.055-23.139 0-46.084-4.278-66.501-12.055 9.917 28.194 33.251 45.306 66.501 45.306 33.64 0 56.586-17.5 66.308-45.306Z"/></g><defs><clipPath><path d="M0 0h512v512H0z"/></clipPath></defs></svg>