<svg xmlns="http://www.w3.org/2000/svg" fill="currentColor" viewBox="0 0 512 512"><g clip-path="url(#a)"><path d="M405 34c18.225 0 33 14.775 33 33v378c-.001 18.226-14.775 33-33 33H280.043l.013-141.282c0-6.034.941-19.205.348-24.482l-.348-.122c-5.031 1.799-10.37 4.536-14.971 7.236-.757 19.676-8.673 33.972-27.346 42.726-20.105 9.428-14.215 3.988-23.316 22.948-10.493 21.884-29.248 32.581-52.114 36.487l.021 25.075c0 17.754-1.19 18.147-6.64 31.414H107c-18.225 0-33-14.775-33-33V67c0-18.226 14.775-33 33-33h298ZM218.105 423.517c14.971-6.094 10.676 20.76 10.676 27.734V478H211.79c1.215-4.998 1.811-10.506 1.795-18.485v-21.496c-.041-5.195-1.554-12.026 4.52-14.501Zm15.529-226.061c-14.399-.205-30.25-.635-44.608-.082h-.007c-20.003 1.206-33.051 16.28-46.304 29.575l-18.592 18.591c-9.102 9.101-18.838 17.938-27.428 27.509-7.874 8.754-7.73 22.784 1.35 30.638 5.666 4.888 15.115 10.37 21.578 14.931l26.752 18.878c4.867 3.456 9.798 7.609 15.094 10.349 11.025 5.706 24.605-3.825 23.521-16.22-.942-10.695-13.949-17.323-21.782-22.967-10.513-7.589-21.169-15.033-31.559-22.784 7.22-8.611 20.187-19.595 28.613-28.144v29.574c17.937.061 17.487-4.356 30.229-11.965 21.068-12.557 40.478-7.362 58.537 6.545-3.702 2.659-8.508 4.93-12.681 6.75-40.514-23.254-41.415 14.256-72.585 11.965 9.429 5.952 26.037 17.119 28.348 27.529 4.827 21.844-20.596 36.692-38.696 24.543-13.52-9.04-26.18-19.492-39.781-28.388-2.618-1.759-5.707-3.518-7.936-5.768-10.9 19.88-11.678 36.407-.961 55.857 13.828 25.136 39.17 40.701 68.172 31.722 14.624-4.54 26.159-16.587 31.394-30.822 7.629-20.718 11.127-16.096 29.453-25.812 15.891-8.447 18.53-19.163 18.039-36.098 5.972-3.579 12.455-6.443 18.673-9.49l90.607-44.772c4.111-2.045 8.14-4.274 12.251-6.258 8.017 6.872 19.614-1.901 27.12-5.665 8.242-4.152 21.803-8.039 20.862-19.574-.247-3.07-8.652-20.718-10.697-24.011-7.035-11.411-21.066-1.513-29.533 2.475-10.84 5.153-17.446 5.318-20.739 18.121-4.295 1.534-8.488 4.131-12.476 6.319l-18.592 10.227c-4.295 2.393-8.57 4.99-13.069 7.015-7.158-6.034-15.912-15.279-22.805-22.151-26.056-25.974-24.809-27.652-59.762-28.142ZM284.046 309.7l-.04.122 36.262 11.576v-.021a19.055 19.055 0 0 0 14.521-1.206 19.026 19.026 0 0 0 9.408-11.147l11.556-36.263-.122-.041-71.585 36.98ZM253.94 171.501c27.776-31.111.205-82.815-40.352-78.213-64.592 10-48.921 100.751 9.898 94.514 11.576-.654 22.907-7.854 30.454-16.301Z"/><path fill-opacity=".12" d="M280.183 312.158a.363.363 0 0 1 .246.307c.542 5.419-.372 18.304-.372 24.253L280.044 473a5 5 0 0 1-5 5h-41.262a5 5 0 0 1-5-5v-21.748c0-6.975 4.294-33.827-10.677-27.733-6.074 2.474-4.56 9.306-4.52 14.501v21.495c.013 5.997-.321 10.598-1.004 14.636-.385 2.275-2.415 3.849-4.721 3.849h-44.711c-3.557 0-5.939-3.599-4.581-6.887 3.016-7.297 3.763-10.47 3.763-24.526l-.017-20.854c-.002-2.438 1.758-4.508 4.143-5.015 20.981-4.463 38.116-15.148 47.966-35.695 9.102-18.959 3.212-13.519 23.317-22.948 17.796-8.343 25.821-21.719 27.191-39.989.128-1.701 1.04-3.265 2.53-4.095 3.971-2.212 8.322-4.338 12.471-5.833a.373.373 0 0 1 .251 0Zm-91.156-114.783c14.358-.552 30.209-.123 44.607.081 34.953.491 33.707 2.169 59.763 28.144 6.147 6.129 13.775 14.145 20.432 20.088a4.659 4.659 0 0 0 5.21.703c3.478-1.759 6.849-3.772 10.232-5.657l18.592-10.225c3.222-1.768 6.578-3.804 10.014-5.33a5.975 5.975 0 0 0 3.216-3.541c3.501-10.301 9.917-10.783 19.985-15.57 8.467-3.988 22.497-13.887 29.533-2.475 2.045 3.293 10.451 20.943 10.697 24.011.941 11.535-12.62 15.422-20.862 19.574-6.681 3.349-16.602 10.668-24.356 7.392-1.83-.773-3.922-1.173-5.692-.273-3.109 1.582-6.193 3.247-9.323 4.805l-90.608 44.77c-5.346 2.621-10.89 5.106-16.136 8.026-1.58.88-2.494 2.586-2.484 4.395.081 15.259-3.137 25.219-18.092 33.168-18.325 9.715-21.823 5.094-29.452 25.811-5.236 14.236-16.772 26.282-31.395 30.823-29.002 8.978-54.343-6.586-68.171-31.722-9.625-17.467-9.98-32.576-2.057-49.873 1.392-3.039 5.529-3.748 8.332-1.926.893.581 1.781 1.146 2.621 1.71 13.602 8.897 26.262 19.349 39.782 28.389 18.1 12.148 43.523-2.701 38.696-24.544-1.194-5.379-6.205-10.959-12.069-15.918-3.976-3.361-1.598-13.441 2.926-16.016 14.659-8.344 22.848-24.028 51.143-8.805 1.394.75 3.095.878 4.535.221 1.53-.697 3.1-1.449 4.634-2.252 2.967-1.554 3.077-5.54.279-7.382-16.496-10.862-34.11-13.935-53.067-2.636-11.43 6.825-12.246 11.082-25.239 11.843-2.75.16-4.99-2.107-4.99-4.861v-12.396c0-4.472-5.519-6.794-8.784-3.738-5.581 5.225-11.569 10.732-16.301 15.745-1.972 2.089-1.589 5.388.726 7.088 9.033 6.632 18.222 13.08 27.304 19.636 7.834 5.645 20.842 12.273 21.783 22.969 1.084 12.394-12.497 21.924-23.521 16.219-5.297-2.741-10.227-6.892-15.095-10.349l-26.751-18.878c-6.464-4.561-15.913-10.042-21.579-14.931-9.08-7.853-9.223-21.884-1.35-30.638 8.591-9.572 18.327-18.408 27.429-27.509l18.59-18.592c13.253-13.294 26.303-28.368 46.306-29.574h.007Zm166.641 75.358a.092.092 0 0 1 .058.115l-11.528 36.176a19.029 19.029 0 0 1-9.408 11.147 19.061 19.061 0 0 1-14.512 1.21c-.005-.001-.01.002-.01.007s-.005.009-.01.007l-36.164-11.545a.09.09 0 0 1-.059-.116.09.09 0 0 1 .044-.052l71.518-36.944a.092.092 0 0 1 .071-.005ZM213.588 93.287c40.558-4.601 68.129 47.103 40.353 78.214-7.547 8.447-18.878 15.646-30.454 16.301-58.82 6.238-74.491-84.514-9.899-94.515Z"/><rect width="144.354" height="40" x="44" y="102" fill-opacity=".2" rx="5" transform="rotate(-45 44 102)"/><path fill-opacity=".2" d="M463.822 92.535a5 5 0 0 0 0-7.07L382.131 3.773a5 5 0 0 0-7.071 0l-21.214 21.213a5.001 5.001 0 0 0 0 7.071l81.692 81.692a5.001 5.001 0 0 0 7.071 0l21.213-21.213Z"/><rect width="144.354" height="40" x="467.358" y="410" fill-opacity=".2" rx="5" transform="rotate(135 467.358 410)"/><path fill-opacity=".2" d="M47.535 419.464a5.001 5.001 0 0 0 0 7.072l81.692 81.691a5 5 0 0 0 7.071 0l21.213-21.213a5 5 0 0 0 0-7.071L75.82 398.251a5.001 5.001 0 0 0-7.071 0l-21.213 21.213Z"/></g><defs><clipPath><path d="M0 0h512v512H0z"/></clipPath></defs></svg>