<svg xmlns="http://www.w3.org/2000/svg" width="512" height="512" fill="currentColor" viewBox="0 0 512 512">
  <path d="M338 14c75.425 0 113.137 0 136.568 23.432C498 60.863 498 98.575 498 174v164c0 75.425 0 113.137-23.432 136.568C451.137 498 413.425 498 338 498H174c-75.425 0-113.137 0-136.568-23.432C14 451.137 14 413.425 14 338V174c0-75.425 0-113.137 23.432-136.568C60.863 14 98.575 14 174 14h164ZM83.196 370.552v53.582c0 17.185 8.76 25.778 26.196 25.778h53.687v-73.186h-.584c-5.756 18.186-27.696 34.286-41.378 36.289-5.089.667-8.26-3.003-8.26-6.924 0-4.421 2.587-7.174 7.175-7.675 12.347-1.418 29.282-17.269 34.454-27.864h-71.29Zm99.489 0c5.088 10.595 22.106 26.612 34.37 27.864 4.671.417 7.258 3.253 7.258 7.675 0 3.921-3.17 7.591-8.259 6.924-13.682-2.003-35.622-18.103-41.378-36.289h-.668v73.186h53.604c17.519 0 26.196-8.593 26.196-25.778v-53.582h-71.123Zm216.25-109.804c-12.945-4.575-19.078-6.424-31.731 1.557-11.242 7.056-25.356 18.347-40.93 33.921-15.573 15.573-26.912 29.735-33.968 40.977-7.982 12.653-6.133 18.786-1.558 31.732 5.548 15.475 13.919 34.26 20.927 47.206 4.38 8.175 8.857 14.892 13.723 19.758 11.388 11.388 26.184 11.388 37.329.244 6.667-6.668 8.808-13.675 7.835-22.825l-1.85-19.466c-.243-2.774.487-4.964 1.947-6.424l46.769-46.769c1.46-1.46 3.65-2.19 6.424-1.947l19.466 1.85c9.15.973 16.158-1.169 22.826-7.836 11.144-11.145 11.144-25.94-.244-37.328-4.866-4.866-11.583-9.343-19.758-13.723-12.946-7.008-31.732-15.379-47.207-20.927Zm-78.792 76.261c2.482-2.482 5.548-2.434 8.128.145l8.759 8.761 8.419-8.42c2.823-2.822 6.084-2.968 8.614-.437 2.628 2.628 2.531 5.937-.292 8.759l-8.418 8.419 8.759 8.761c2.579 2.579 2.677 5.694.195 8.176-2.531 2.53-5.597 2.385-8.176-.194l-8.76-8.761-9.004 9.004c-2.628 2.627-5.791 2.579-8.419-.049-2.53-2.531-2.53-5.646.098-8.274l9.003-9.003-8.76-8.76c-2.579-2.579-2.677-5.597-.146-8.127Zm-210.751-63.503c-17.436 0-26.195 8.676-26.196 25.861v61.257h49.6c-11.179-5.006-18.938-14.266-18.938-25.444.001-12.931 9.595-22.525 22.359-22.525 11.178 0 21.106 6.924 26.862 18.27v-57.419h-53.687Zm64.616 0v57.419c5.84-11.346 15.768-18.27 26.863-18.27 12.847 0 22.357 9.594 22.358 22.525 0 11.179-7.676 20.439-18.938 25.444h49.517v-61.257c-.001-17.185-8.677-25.861-26.196-25.861h-53.604Zm-37.124 51.913c-6.34 0-10.428 4.088-10.428 10.762 0 11.179 14.934 23.108 32.369 23.108h2.669v-2.502c0-16.768-11.429-31.368-24.61-31.368Zm63.319 0c-13.181 0-24.61 14.6-24.61 31.368v2.502h2.67c17.519 0 32.369-11.929 32.369-23.108 0-6.674-4.005-10.762-10.429-10.762Zm176.539-11.624c4.039-4.039 10.658-4.039 14.697 0 4.04 4.039 3.991 10.609-.048 14.648-3.991 3.991-10.61 4.088-14.649.049s-3.99-10.706 0-14.697Zm-.097-29.59a10.34 10.34 0 0 1 14.698 0c4.039 4.039 4.039 10.561-.049 14.649-3.991 3.99-10.61 4.088-14.649.048-4.088-4.088-3.991-10.706 0-14.697ZM363.626 60.418c-47.291 0-85.626 38.335-85.626 85.626 0 15.41 4.07 29.868 11.195 42.359l43.378-24.686c.375.65.772 1.303 1.189 1.936l-41.714 27.391a86.847 86.847 0 0 0 5.014 6.857l38.793-31.387c.356.439.724.873 1.102 1.299l.017.021.025.026.015.022.028.026.016.023.024.025.02.021.024.028.062.067.026.027.015.02.027.027.016.021.026.026.06.067.027.027.017.021.025.026.015.02.029.028.102.114.027.025.017.023.027.024.174.187.018.017.026.029.016.016.028.028.016.02.028.027.017.021.025.025.021.021.025.026.019.017.028.027.016.021.072.072.02.018.026.026.016.021.029.025.015.02.027.027.021.017.025.027.017.019.028.027.017.02.027.026.017.02.026.025.022.019.024.028.018.02.028.026.019.019c.413.397.832.788 1.245 1.165l-33.183 37.244c15.137 13.5 35.091 21.705 56.969 21.705 47.289 0 85.622-38.331 85.622-85.622 0-15.41-4.072-29.866-11.196-42.356l-43.373 24.683a31.169 31.169 0 0 0-1.19-1.937l41.713-27.388a86.632 86.632 0 0 0-5.014-6.858l-38.792 31.384a34.095 34.095 0 0 0-1.103-1.3l-.019-.016-.025-.032-.015-.018-.029-.026-.015-.022-.024-.026-.018-.021-.024-.029-.016-.017-.028-.028-.016-.017-.024-.029-.019-.021-.027-.027-.015-.016-.027-.03-.018-.02-.029-.028-.015-.018-.027-.028-.019-.021-.025-.029-.015-.021-.029-.026-.016-.019-.028-.029-.016-.019-.027-.027-.015-.02-.027-.028-.019-.02-.026-.026-.016-.02-.026-.028-.044-.044-.015-.021-.029-.027-.015-.017-.027-.028-.017-.016-.026-.032-.016-.015-.028-.027-.016-.02-.028-.028-.019-.02-.025-.027-.021-.015-.025-.03-.017-.016-.028-.026-.016-.017-.026-.029-.017-.015-.027-.032-.017-.016-.027-.028-.016-.016-.03-.028-.014-.018-.042-.034-.021-.015-.027-.028-.015-.015-.029-.031-.017-.015-.044-.044-.072-.075-.018-.014-.03-.029-.018-.015c-.405-.4-.822-.782-1.244-1.166l33.199-37.25c-15.135-13.507-35.091-21.713-56.969-21.713Zm-163.188 2.587c-3.088-1.39-5.945-1.313-8.802.077-10.192 4.864-18.454 7.335-29.958 7.335-11.582 0-19.844-2.47-30.036-7.335-2.857-1.39-5.714-1.467-8.802-.077L68.481 86.168c-7.025 2.934-9.727 8.03-7.952 15.365l6.871 27.411c1.776 7.412 6.41 10.346 13.59 8.725l18.994-4.324.927 75.823c.232 14.207 7.181 21.079 21.465 21.079h78.525c14.285 0 21.233-6.872 21.465-21.079l1.004-75.823 18.917 4.324c7.181 1.621 11.814-1.313 13.59-8.725l6.872-27.411c1.853-7.335-.927-12.431-7.953-15.365l-54.358-23.163Zm163.188 56.693c14.546 0 26.346 11.794 26.346 26.346s-11.8 26.346-26.346 26.346c-14.552 0-26.346-11.794-26.346-26.346s11.794-26.346 26.346-26.346Zm-182.296-7.072c5.955 0 10.781 4.828 10.781 10.782v29.404c0 2.061.001 3.092-.366 3.894a4.048 4.048 0 0 1-1.998 1.998c-.802.366-1.833.367-3.894.367h-4.572c-2.726 0-4.091 0-5.084-.63a4.045 4.045 0 0 1-1.249-1.249c-.63-.993-.631-2.358-.631-5.085v-15.741c0-.785.638-1.422 1.423-1.423h2.307a8.325 8.325 0 0 0 8.324-8.181.556.556 0 0 0-.555-.565h-4.128c-4.363 0-6.545 0-8.134 1.008a6.471 6.471 0 0 0-1.998 1.999c-.918 1.447-1.001 3.387-1.008 7.017v-12.21h-.001v12.29a3.972 3.972 0 0 1-3.971 3.97h-2.362a6.033 6.033 0 0 0 0 12.064h2.437a3.896 3.896 0 0 1 3.824 3.153c-.052.489-.138.875-.294 1.218a4.052 4.052 0 0 1-1.998 1.998c-.802.367-1.835.367-3.896.367h-4.57c-2.727 0-4.091 0-5.084-.63a4.045 4.045 0 0 1-1.249-1.249c-.63-.993-.631-2.358-.631-5.085v-4.786h.001v-13.367c0-.785.637-1.422 1.423-1.423h2.306a8.327 8.327 0 0 0 8.325-8.181.557.557 0 0 0-.555-.566h-4.127c-4.364 0-6.547.001-8.136 1.009a6.49 6.49 0 0 0-1.998 1.998c-1.008 1.589-1.009 3.773-1.009 8.136v.469a3.97 3.97 0 0 1-3.97 3.97h-2.363a6.033 6.033 0 0 0 0 12.065h2.438a3.895 3.895 0 0 1 3.855 3.339c-.059 1.088-.209 1.823-.589 2.422a4.06 4.06 0 0 1-1.25 1.249c-.993.63-2.358.63-5.084.63h-3.188c-2.727 0-4.092.001-5.085-.63a4.045 4.045 0 0 1-1.249-1.249c-.63-.993-.63-2.358-.63-5.085v-30.233c0-1.529 0-2.295.136-2.947a6.48 6.48 0 0 1 4.344-4.844c.633-.205 1.394-.288 2.915-.454 1.849-.202 2.774-.303 3.534-.206a6.478 6.478 0 0 1 5.48 4.915c.087.361.131.767.154 1.3h.025c0 .795.646.945 1.051.449 1.4-4.329 5.463-7.461 10.259-7.461 4.627 0 8.572 2.917 10.101 7.012h.002l.014.04.023.064c.309.84.973.84 1.282 0l.022-.063c.004-.014.011-.028.016-.041h.002c1.528-4.095 5.474-7.012 10.102-7.012Zm182.296 29.373a4.045 4.045 0 1 0 0 8.09 4.045 4.045 0 0 0 0-8.09ZM188.007 76.517c-3.861 11.04-12.972 17.99-26.329 17.99-13.203 0-22.47-6.795-26.407-17.99 8.107 3.088 17.219 4.787 26.407 4.787 9.111 0 18.299-1.7 26.329-4.787Z"/>
</svg>
